<?xml version="1.0" standalone="no"?>
<!DOCTYPE svg PUBLIC "-//W3C//DTD SVG 20010904//EN"
 "http://www.w3.org/TR/2001/REC-SVG-20010904/DTD/svg10.dtd">
<svg version="1.0" xmlns="http://www.w3.org/2000/svg"
 width="171.000000pt" height="171.000000pt" viewBox="0 0 171.000000 171.000000"
 preserveAspectRatio="xMidYMid meet">
<metadata>
Created by potrace 1.14, written by Peter Selinger 2001-2017
</metadata>
<g transform="translate(0.000000,171.000000) scale(0.100000,-0.100000)"
fill="#000000" stroke="none">
<path d="M304 1675 c-55 -29 -91 -69 -110 -123 -17 -49 -20 -1326 -3 -1387 16
-56 57 -110 104 -137 l40 -23 498 -3 c337 -2 511 1 538 8 23 6 60 29 84 51 76
70 75 62 75 654 l0 521 -61 64 c-34 36 -133 140 -221 233 l-160 167 -367 0
-367 0 -50 -25z m726 -220 c6 -185 15 -208 90 -249 41 -22 58 -24 179 -26 74
0 138 -3 141 -5 4 -2 7 -222 8 -489 0 -468 -1 -486 -20 -526 -39 -79 -28 -77
-570 -77 -458 -1 -479 0 -518 19 -78 39 -74 3 -75 738 -2 680 -1 695 39 736
43 43 56 44 396 42 l325 -3 5 -160z"/>
<path d="M673 912 l-22 -3 0 -314 c0 -236 3 -314 12 -317 7 -2 32 -4 57 -4
l45 1 3 318 c2 250 0 317 -10 318 -7 0 -24 1 -38 2 -14 1 -35 1 -47 -1z"/>
<path d="M848 915 c-3 0 -6 -602 -3 -621 4 -17 12 -20 55 -20 52 1 57 6 50 56
-1 9 12 2 32 -17 69 -65 178 -63 255 5 81 70 89 278 14 360 -69 77 -196 90
-262 26 l-29 -28 -1 35 c0 19 -1 71 -1 117 l1 82 -27 1 c-15 0 -39 2 -54 3
-16 1 -29 2 -30 1z m296 -284 c31 -30 45 -75 42 -140 -4 -88 -36 -128 -112
-136 -68 -6 -118 65 -113 162 5 96 51 147 123 138 22 -3 49 -14 60 -24z"/>
<path d="M467 372 c-23 -25 -21 -58 3 -82 21 -21 31 -24 65 -20 50 5 73 70 37
103 -25 23 -85 22 -105 -1z"/>
</g>
</svg>
