<?xml version="1.0" standalone="no"?>
<!DOCTYPE svg PUBLIC "-//W3C//DTD SVG 20010904//EN"
 "http://www.w3.org/TR/2001/REC-SVG-20010904/DTD/svg10.dtd">
<svg version="1.0" xmlns="http://www.w3.org/2000/svg"
 width="260.000000pt" height="260.000000pt" viewBox="0 0 260.000000 260.000000"
 preserveAspectRatio="xMidYMid meet">
<metadata>
Created by potrace 1.14, written by Peter Selinger 2001-2017
</metadata>
<g transform="translate(0.000000,260.000000) scale(0.100000,-0.100000)"
fill="#000000" stroke="none">
<path d="M1531 2535 c-25 -18 -63 -38 -85 -45 -68 -20 -91 -37 -129 -92 -46
-67 -71 -160 -69 -259 2 -66 7 -104 26 -197 4 -20 2 -22 -17 -16 -25 8 -173
98 -200 123 -10 8 -25 30 -32 47 -13 31 -58 70 -85 74 -27 4 -38 0 -68 -25
l-30 -25 -37 21 c-35 21 -38 21 -70 6 -62 -29 -70 -54 -69 -206 0 -123 3 -171
19 -296 6 -45 9 -61 19 -90 14 -41 72 -151 103 -197 28 -43 28 -54 0 -49 -4 1
-24 3 -43 6 -20 2 -44 6 -53 9 -67 19 -280 26 -395 12 -105 -12 -274 -118
-277 -174 -1 -24 -5 -43 -17 -72 -14 -36 -14 -44 0 -46 7 -1 40 -9 73 -17 33
-9 87 -18 120 -21 33 -3 83 -8 110 -11 52 -6 147 -34 226 -67 l46 -19 -28 -52
c-27 -51 -33 -73 -45 -167 -3 -25 -8 -61 -10 -80 -13 -97 -6 -219 16 -291 32
-105 36 -108 108 -76 33 15 68 27 78 27 11 0 62 18 114 39 52 22 110 45 129
52 52 20 178 105 213 144 17 20 44 54 60 76 16 22 35 43 44 46 17 6 70 -29
135 -89 130 -122 187 -160 282 -186 27 -8 44 -6 77 9 l41 19 15 -35 c8 -19 14
-37 14 -41 0 -3 6 -20 14 -37 11 -28 32 -92 64 -201 11 -40 34 -47 32 -10 -3
43 -1 51 10 34 7 -11 12 -12 21 -3 12 12 3 61 -35 193 -9 30 -16 67 -16 82 0
15 -7 34 -16 43 -15 14 -14 18 2 43 10 15 19 34 19 42 1 8 5 33 9 55 4 22 9
54 11 70 2 17 9 48 15 70 6 22 12 47 14 56 7 28 43 93 66 119 12 14 35 44 52
68 16 23 31 42 33 42 12 0 62 -27 75 -40 122 -120 123 -121 154 -105 15 8 34
15 41 15 7 0 13 10 13 23 0 12 2 36 5 52 4 17 11 55 17 85 9 47 14 188 7 223
-8 44 -140 140 -204 150 -12 2 -25 6 -28 9 -3 3 7 34 23 69 28 62 67 216 76
292 3 33 35 147 56 203 5 12 43 48 85 79 114 86 149 123 135 141 -7 8 -18 14
-26 14 -7 0 -19 6 -26 14 -8 7 -25 17 -38 21 -14 4 -33 16 -43 26 -10 11 -22
17 -28 14 -5 -4 -9 -2 -9 3 0 11 -25 23 -60 28 -36 5 -151 -13 -247 -40 -29
-8 -53 -13 -53 -11 0 8 -136 -47 -175 -70 -45 -26 -175 -148 -175 -165 0 -5
-4 -10 -9 -10 -4 0 -7 26 -6 58 2 71 -25 169 -78 281 -38 80 -41 91 -39 164 2
42 1 77 0 76 -2 0 -23 -15 -47 -34z"/>
</g>
</svg>
